<svg xmlns="http://www.w3.org/2000/svg" xmlns:xlink="http://www.w3.org/1999/xlink" width="40" zoomAndPan="magnify" viewBox="0 0 30 30.000001" height="40" preserveAspectRatio="xMidYMid meet" version="1.0"><defs><g/><clipPath id="20f80be769"><path d="M 0.484375 0 L 29.515625 0 L 29.515625 29.03125 L 0.484375 29.03125 Z M 0.484375 0 " clip-rule="nonzero"/></clipPath><clipPath id="1655eb80c0"><rect x="0" width="27" y="0" height="23"/></clipPath></defs><g clip-path="url(#20f80be769)"><path fill="#ffffff" d="M 0.484375 0 L 29.515625 0 L 29.515625 29.03125 L 0.484375 29.03125 Z M 0.484375 0 " fill-opacity="1" fill-rule="nonzero"/><path fill="#5400ff" d="M 0.484375 0 L 29.515625 0 L 29.515625 29.03125 L 0.484375 29.03125 Z M 0.484375 0 " fill-opacity="1" fill-rule="nonzero"/></g><g transform="matrix(1, 0, 0, 1, 2, 5)"><g clip-path="url(#1655eb80c0)"><g fill="#ffffff" fill-opacity="1"><g transform="translate(0.849512, 16.890749)"><g><path d="M 4.0625 -11.421875 L 0.421875 -11.421875 C 0.421875 -12.003906 0.421875 -12.570312 0.421875 -13.125 C 0.421875 -13.6875 0.421875 -14.25 0.421875 -14.8125 L 11.421875 -14.8125 C 11.421875 -14.25 11.421875 -13.6875 11.421875 -13.125 C 11.421875 -12.570312 11.421875 -12.003906 11.421875 -11.421875 L 7.8125 -11.421875 L 7.8125 0 C 7.1875 0 6.5625 0 5.9375 0 C 5.3125 0 4.6875 0 4.0625 0 Z M 4.0625 -11.421875 "/></g></g></g><g fill="#ffffff" fill-opacity="1"><g transform="translate(13.24932, 16.890749)"><g><path d="M 4.0625 -11.421875 L 0.421875 -11.421875 C 0.421875 -12.003906 0.421875 -12.570312 0.421875 -13.125 C 0.421875 -13.6875 0.421875 -14.25 0.421875 -14.8125 L 11.421875 -14.8125 C 11.421875 -14.25 11.421875 -13.6875 11.421875 -13.125 C 11.421875 -12.570312 11.421875 -12.003906 11.421875 -11.421875 L 7.8125 -11.421875 L 7.8125 0 C 7.1875 0 6.5625 0 5.9375 0 C 5.3125 0 4.6875 0 4.0625 0 Z M 4.0625 -11.421875 "/></g></g></g></g></g></svg>